<svg width="1440" height="1024" viewBox="0 0 1440 1024" fill="none" xmlns="http://www.w3.org/2000/svg">
  <rect width="1440" height="1024" fill="#F9FAFB"/>

  <rect x="0" y="0" width="1440" height="86" fill="#FFFFFF"/>
  <rect x="0" y="85" width="1440" height="1" fill="#E5E7EB"/>
  <text x="96" y="53" fill="#D97706" font-family="Inter, Arial, sans-serif" font-size="28" font-weight="800">Risa Resa Cookies</text>
  <text x="760" y="52" fill="#4B5563" font-family="Inter, Arial, sans-serif" font-size="18" font-weight="700">Katalog</text>
  <text x="858" y="52" fill="#D97706" font-family="Inter, Arial, sans-serif" font-size="18" font-weight="900">Dashboard</text>
  <circle cx="996" cy="44" r="18" fill="#FEF3C7"/>
  <path d="M988 56C990 50 1002 50 1004 56M996 44C1000 44 1003 41 1003 37C1003 33 1000 30 996 30C992 30 989 33 989 37C989 41 992 44 996 44Z" stroke="#92400E" stroke-width="2" stroke-linecap="round"/>
  <text x="1026" y="50" fill="#4B5563" font-family="Inter, Arial, sans-serif" font-size="17" font-weight="700">Admin</text>
  <rect x="1110" y="24" width="104" height="42" rx="8" fill="#FEE2E2"/>
  <text x="1136" y="51" fill="#DC2626" font-family="Inter, Arial, sans-serif" font-size="17" font-weight="800">Logout</text>

  <rect x="80" y="126" width="1280" height="178" rx="22" fill="#FFF7ED" stroke="#FED7AA"/>
  <text x="118" y="184" fill="#D97706" font-family="Inter, Arial, sans-serif" font-size="15" font-weight="900" letter-spacing="1.5">ADMIN AREA</text>
  <text x="118" y="246" fill="#111827" font-family="Inter, Arial, sans-serif" font-size="44" font-weight="900">Dashboard Admin</text>
  <text x="118" y="282" fill="#6B7280" font-family="Inter, Arial, sans-serif" font-size="18" font-weight="500">Ringkasan pengelolaan produk, pesanan, pelanggan, dan transaksi Risa Resa Cookies.</text>
  <rect x="1138" y="190" width="150" height="48" rx="24" fill="#D97706"/>
  <text x="1174" y="220" fill="#FFFFFF" font-family="Inter, Arial, sans-serif" font-size="16" font-weight="900">Refresh Data</text>

  <g>
    <rect x="80" y="344" width="292" height="128" rx="12" fill="#FFFFFF" stroke="#F3F4F6"/>
    <rect x="112" y="380" width="58" height="58" rx="10" fill="#FEF3C7"/>
    <path d="M126 400H156V422H126V400Z" stroke="#D97706" stroke-width="2.5" stroke-linejoin="round"/>
    <path d="M133 400V394H149V400" stroke="#D97706" stroke-width="2.5" stroke-linecap="round"/>
    <text x="192" y="402" fill="#6B7280" font-family="Inter, Arial, sans-serif" font-size="16" font-weight="700">Produk</text>
    <text x="192" y="436" fill="#111827" font-family="Inter, Arial, sans-serif" font-size="22" font-weight="900">Total Produk</text>
  </g>

  <g>
    <rect x="404" y="344" width="292" height="128" rx="12" fill="#FFFFFF" stroke="#F3F4F6"/>
    <rect x="436" y="380" width="58" height="58" rx="10" fill="#DBEAFE"/>
    <path d="M450 400H480L476 424H454L450 400Z" stroke="#2563EB" stroke-width="2.5" stroke-linejoin="round"/>
    <path d="M457 400C457 392 473 392 473 400" stroke="#2563EB" stroke-width="2.5" stroke-linecap="round"/>
    <text x="516" y="402" fill="#6B7280" font-family="Inter, Arial, sans-serif" font-size="16" font-weight="700">Pesanan</text>
    <text x="516" y="436" fill="#111827" font-family="Inter, Arial, sans-serif" font-size="22" font-weight="900">Total Pesanan</text>
  </g>

  <g>
    <rect x="728" y="344" width="292" height="128" rx="12" fill="#FFFFFF" stroke="#F3F4F6"/>
    <rect x="760" y="380" width="58" height="58" rx="10" fill="#DCFCE7"/>
    <circle cx="780" cy="400" r="8" stroke="#16A34A" stroke-width="2.5"/>
    <circle cx="799" cy="404" r="6" stroke="#16A34A" stroke-width="2.5"/>
    <path d="M768 422C771 412 789 412 792 422" stroke="#16A34A" stroke-width="2.5" stroke-linecap="round"/>
    <path d="M791 422C793 416 805 416 807 422" stroke="#16A34A" stroke-width="2.5" stroke-linecap="round"/>
    <text x="840" y="402" fill="#6B7280" font-family="Inter, Arial, sans-serif" font-size="16" font-weight="700">Pelanggan</text>
    <text x="840" y="436" fill="#111827" font-family="Inter, Arial, sans-serif" font-size="22" font-weight="900">Total Pelanggan</text>
  </g>

  <g>
    <rect x="1052" y="344" width="308" height="128" rx="12" fill="#FFFFFF" stroke="#F3F4F6"/>
    <rect x="1084" y="380" width="58" height="58" rx="10" fill="#FEF3C7"/>
    <path d="M1100 420H1126M1104 408H1122M1108 396H1118" stroke="#D97706" stroke-width="3" stroke-linecap="round"/>
    <text x="1164" y="402" fill="#6B7280" font-family="Inter, Arial, sans-serif" font-size="16" font-weight="700">Omzet</text>
    <text x="1164" y="436" fill="#D97706" font-family="Inter, Arial, sans-serif" font-size="22" font-weight="900">Total Omzet</text>
  </g>

  <rect x="80" y="528" width="820" height="326" rx="14" fill="#FFFFFF" stroke="#E5E7EB"/>
  <text x="118" y="582" fill="#111827" font-family="Inter, Arial, sans-serif" font-size="28" font-weight="900">Ringkasan Aktivitas</text>
  <text x="118" y="614" fill="#6B7280" font-family="Inter, Arial, sans-serif" font-size="16" font-weight="500">Area ini menampilkan aktivitas terbaru dari produk, pesanan, dan pelanggan.</text>
  <rect x="118" y="656" width="744" height="54" rx="10" fill="#F9FAFB"/>
  <circle cx="150" cy="683" r="10" fill="#D97706"/>
  <text x="176" y="689" fill="#374151" font-family="Inter, Arial, sans-serif" font-size="16" font-weight="800">Aktivitas produk terbaru</text>
  <rect x="118" y="726" width="744" height="54" rx="10" fill="#F9FAFB"/>
  <circle cx="150" cy="753" r="10" fill="#2563EB"/>
  <text x="176" y="759" fill="#374151" font-family="Inter, Arial, sans-serif" font-size="16" font-weight="800">Aktivitas pesanan terbaru</text>
  <rect x="118" y="796" width="744" height="54" rx="10" fill="#F9FAFB"/>
  <circle cx="150" cy="823" r="10" fill="#16A34A"/>
  <text x="176" y="829" fill="#374151" font-family="Inter, Arial, sans-serif" font-size="16" font-weight="800">Aktivitas pelanggan terbaru</text>

  <rect x="940" y="528" width="420" height="326" rx="14" fill="#FFFFFF" stroke="#E5E7EB"/>
  <text x="978" y="582" fill="#111827" font-family="Inter, Arial, sans-serif" font-size="28" font-weight="900">Menu Cepat</text>
  <text x="978" y="614" fill="#6B7280" font-family="Inter, Arial, sans-serif" font-size="16" font-weight="500">Akses bagian pengelolaan admin.</text>
  <rect x="978" y="656" width="344" height="52" rx="10" fill="#FEF3C7"/>
  <text x="1010" y="689" fill="#92400E" font-family="Inter, Arial, sans-serif" font-size="17" font-weight="900">Kelola Produk</text>
  <path d="M1284 674L1294 684L1284 694" stroke="#92400E" stroke-width="2.4" stroke-linecap="round" stroke-linejoin="round"/>
  <rect x="978" y="726" width="344" height="52" rx="10" fill="#EFF6FF"/>
  <text x="1010" y="759" fill="#1E3A8A" font-family="Inter, Arial, sans-serif" font-size="17" font-weight="900">Kelola Pesanan</text>
  <path d="M1284 744L1294 754L1284 764" stroke="#1E3A8A" stroke-width="2.4" stroke-linecap="round" stroke-linejoin="round"/>
  <rect x="978" y="796" width="344" height="52" rx="10" fill="#ECFDF5"/>
  <text x="1010" y="829" fill="#166534" font-family="Inter, Arial, sans-serif" font-size="17" font-weight="900">Data Pelanggan</text>
  <path d="M1284 814L1294 824L1284 834" stroke="#166534" stroke-width="2.4" stroke-linecap="round" stroke-linejoin="round"/>

  <rect x="80" y="898" width="1280" height="64" rx="12" fill="#FFFFFF" stroke="#E5E7EB"/>
  <text x="118" y="937" fill="#6B7280" font-family="Inter, Arial, sans-serif" font-size="16" font-weight="600">Catatan akses: halaman dashboard hanya dapat dibuka oleh user dengan role admin.</text>

  <text x="80" y="998" fill="#9CA3AF" font-family="Inter, Arial, sans-serif" font-size="14" font-weight="600">Rancangan Halaman Dashboard Admin - Risa Resa Cookies</text>
</svg>
