<svg width="1440" height="1200" viewBox="0 0 1440 1200" fill="none" xmlns="http://www.w3.org/2000/svg">
  <rect width="1440" height="1200" fill="#F9FAFB"/>

  <rect x="0" y="0" width="1440" height="86" fill="#FFFFFF"/>
  <rect x="0" y="85" width="1440" height="1" fill="#E5E7EB"/>
  <text x="96" y="53" fill="#D97706" font-family="Inter, Arial, sans-serif" font-size="28" font-weight="800">Risa Resa Cookies</text>
  <text x="760" y="52" fill="#4B5563" font-family="Inter, Arial, sans-serif" font-size="18" font-weight="700">Katalog</text>
  <text x="858" y="52" fill="#D97706" font-family="Inter, Arial, sans-serif" font-size="18" font-weight="900">Dashboard</text>
  <circle cx="996" cy="44" r="18" fill="#FEF3C7"/>
  <path d="M988 56C990 50 1002 50 1004 56M996 44C1000 44 1003 41 1003 37C1003 33 1000 30 996 30C992 30 989 33 989 37C989 41 992 44 996 44Z" stroke="#92400E" stroke-width="2" stroke-linecap="round"/>
  <text x="1026" y="50" fill="#4B5563" font-family="Inter, Arial, sans-serif" font-size="17" font-weight="700">Admin</text>
  <rect x="1110" y="24" width="104" height="42" rx="8" fill="#FEE2E2"/>
  <text x="1136" y="51" fill="#DC2626" font-family="Inter, Arial, sans-serif" font-size="17" font-weight="800">Logout</text>

  <text x="80" y="156" fill="#111827" font-family="Inter, Arial, sans-serif" font-size="38" font-weight="900">Dashboard Admin</text>
  <text x="80" y="190" fill="#6B7280" font-family="Inter, Arial, sans-serif" font-size="18" font-weight="500">Kelola produk, pesanan, pelanggan, dan status transaksi Risa Resa Cookies.</text>

  <g>
    <rect x="80" y="232" width="292" height="120" rx="12" fill="#FFFFFF" stroke="#F3F4F6"/>
    <rect x="112" y="264" width="56" height="56" rx="10" fill="#FEF3C7"/>
    <path d="M126 284H154V306H126V284Z" stroke="#D97706" stroke-width="2.5" stroke-linejoin="round"/>
    <path d="M132 284V278H148V284" stroke="#D97706" stroke-width="2.5" stroke-linecap="round"/>
    <text x="190" y="284" fill="#6B7280" font-family="Inter, Arial, sans-serif" font-size="16" font-weight="600">Produk</text>
    <text x="190" y="318" fill="#111827" font-family="Inter, Arial, sans-serif" font-size="22" font-weight="900">Total Produk</text>
  </g>

  <g>
    <rect x="404" y="232" width="292" height="120" rx="12" fill="#FFFFFF" stroke="#F3F4F6"/>
    <rect x="436" y="264" width="56" height="56" rx="10" fill="#DBEAFE"/>
    <path d="M450 284H478L474 306H454L450 284Z" stroke="#2563EB" stroke-width="2.5" stroke-linejoin="round"/>
    <path d="M456 284C456 276 472 276 472 284" stroke="#2563EB" stroke-width="2.5" stroke-linecap="round"/>
    <text x="514" y="284" fill="#6B7280" font-family="Inter, Arial, sans-serif" font-size="16" font-weight="600">Pesanan</text>
    <text x="514" y="318" fill="#111827" font-family="Inter, Arial, sans-serif" font-size="22" font-weight="900">Total Pesanan</text>
  </g>

  <g>
    <rect x="728" y="232" width="292" height="120" rx="12" fill="#FFFFFF" stroke="#F3F4F6"/>
    <rect x="760" y="264" width="56" height="56" rx="10" fill="#DCFCE7"/>
    <circle cx="780" cy="284" r="8" stroke="#16A34A" stroke-width="2.5"/>
    <circle cx="798" cy="288" r="6" stroke="#16A34A" stroke-width="2.5"/>
    <path d="M768 306C771 296 789 296 792 306" stroke="#16A34A" stroke-width="2.5" stroke-linecap="round"/>
    <path d="M790 306C792 300 804 300 806 306" stroke="#16A34A" stroke-width="2.5" stroke-linecap="round"/>
    <text x="838" y="284" fill="#6B7280" font-family="Inter, Arial, sans-serif" font-size="16" font-weight="600">Pelanggan</text>
    <text x="838" y="318" fill="#111827" font-family="Inter, Arial, sans-serif" font-size="22" font-weight="900">Total Pelanggan</text>
  </g>

  <g>
    <rect x="1052" y="232" width="308" height="120" rx="12" fill="#FFFFFF" stroke="#F3F4F6"/>
    <text x="1084" y="284" fill="#6B7280" font-family="Inter, Arial, sans-serif" font-size="16" font-weight="600">Omzet Tercatat</text>
    <text x="1084" y="322" fill="#D97706" font-family="Inter, Arial, sans-serif" font-size="24" font-weight="900">Total Omzet</text>
  </g>

  <section>
    <text x="80" y="428" fill="#111827" font-family="Inter, Arial, sans-serif" font-size="28" font-weight="900">Kelola Produk</text>
    <rect x="1172" y="394" width="188" height="46" rx="8" fill="#D97706"/>
    <text x="1208" y="423" fill="#FFFFFF" font-family="Inter, Arial, sans-serif" font-size="16" font-weight="900">+ Tambah Produk</text>

    <rect x="80" y="466" width="1280" height="222" rx="12" fill="#FFFFFF" stroke="#E5E7EB"/>
    <rect x="80" y="466" width="1280" height="54" rx="12" fill="#F9FAFB"/>
    <text x="112" y="500" fill="#374151" font-family="Inter, Arial, sans-serif" font-size="15" font-weight="900">Nama Produk</text>
    <text x="548" y="500" fill="#374151" font-family="Inter, Arial, sans-serif" font-size="15" font-weight="900">Harga</text>
    <text x="822" y="500" fill="#374151" font-family="Inter, Arial, sans-serif" font-size="15" font-weight="900">Stok</text>
    <text x="1114" y="500" fill="#374151" font-family="Inter, Arial, sans-serif" font-size="15" font-weight="900">Aksi</text>

    <line x1="80" y1="520" x2="1360" y2="520" stroke="#E5E7EB"/>
    <text x="112" y="562" fill="#111827" font-family="Inter, Arial, sans-serif" font-size="16" font-weight="800">Nastar Keju Special</text>
    <text x="548" y="562" fill="#4B5563" font-family="Inter, Arial, sans-serif" font-size="16" font-weight="600">Harga Produk</text>
    <text x="822" y="562" fill="#4B5563" font-family="Inter, Arial, sans-serif" font-size="16" font-weight="600">Stok Produk</text>
    <text x="1114" y="562" fill="#2563EB" font-family="Inter, Arial, sans-serif" font-size="16" font-weight="900">Edit</text>
    <text x="1170" y="562" fill="#DC2626" font-family="Inter, Arial, sans-serif" font-size="16" font-weight="900">Hapus</text>

    <line x1="80" y1="584" x2="1360" y2="584" stroke="#E5E7EB"/>
    <text x="112" y="626" fill="#111827" font-family="Inter, Arial, sans-serif" font-size="16" font-weight="800">Kastengel Rombutter</text>
    <text x="548" y="626" fill="#4B5563" font-family="Inter, Arial, sans-serif" font-size="16" font-weight="600">Harga Produk</text>
    <text x="822" y="626" fill="#4B5563" font-family="Inter, Arial, sans-serif" font-size="16" font-weight="600">Stok Produk</text>
    <text x="1114" y="626" fill="#2563EB" font-family="Inter, Arial, sans-serif" font-size="16" font-weight="900">Edit</text>
    <text x="1170" y="626" fill="#DC2626" font-family="Inter, Arial, sans-serif" font-size="16" font-weight="900">Hapus</text>
  </section>

  <section>
    <text x="80" y="760" fill="#111827" font-family="Inter, Arial, sans-serif" font-size="28" font-weight="900">CRUD Pemesanan</text>
    <rect x="80" y="798" width="1280" height="206" rx="12" fill="#FFFFFF" stroke="#E5E7EB"/>
    <rect x="80" y="798" width="1280" height="54" rx="12" fill="#F9FAFB"/>
    <text x="112" y="832" fill="#374151" font-family="Inter, Arial, sans-serif" font-size="15" font-weight="900">Pesanan</text>
    <text x="308" y="832" fill="#374151" font-family="Inter, Arial, sans-serif" font-size="15" font-weight="900">Pelanggan</text>
    <text x="546" y="832" fill="#374151" font-family="Inter, Arial, sans-serif" font-size="15" font-weight="900">Item</text>
    <text x="828" y="832" fill="#374151" font-family="Inter, Arial, sans-serif" font-size="15" font-weight="900">Total</text>
    <text x="1010" y="832" fill="#374151" font-family="Inter, Arial, sans-serif" font-size="15" font-weight="900">Status</text>
    <text x="1192" y="832" fill="#374151" font-family="Inter, Arial, sans-serif" font-size="15" font-weight="900">Aksi</text>

    <line x1="80" y1="852" x2="1360" y2="852" stroke="#E5E7EB"/>
    <text x="112" y="894" fill="#111827" font-family="Inter, Arial, sans-serif" font-size="16" font-weight="900">Kode Pesanan</text>
    <text x="308" y="894" fill="#111827" font-family="Inter, Arial, sans-serif" font-size="16" font-weight="800">Risa</text>
    <text x="546" y="894" fill="#4B5563" font-family="Inter, Arial, sans-serif" font-size="16" font-weight="600">Item Pesanan</text>
    <text x="828" y="894" fill="#D97706" font-family="Inter, Arial, sans-serif" font-size="16" font-weight="900">Total Harga</text>
    <rect x="1010" y="872" width="82" height="28" rx="14" fill="#FEF3C7"/>
    <text x="1026" y="891" fill="#B45309" font-family="Inter, Arial, sans-serif" font-size="13" font-weight="900">pending</text>
    <text x="1192" y="894" fill="#2563EB" font-family="Inter, Arial, sans-serif" font-size="16" font-weight="900">Edit</text>
    <text x="1248" y="894" fill="#DC2626" font-family="Inter, Arial, sans-serif" font-size="16" font-weight="900">Hapus</text>

    <line x1="80" y1="916" x2="1360" y2="916" stroke="#E5E7EB"/>
    <text x="112" y="958" fill="#111827" font-family="Inter, Arial, sans-serif" font-size="16" font-weight="900">Kode Pesanan</text>
    <text x="308" y="958" fill="#111827" font-family="Inter, Arial, sans-serif" font-size="16" font-weight="800">Resa</text>
    <text x="546" y="958" fill="#4B5563" font-family="Inter, Arial, sans-serif" font-size="16" font-weight="600">Item Pesanan</text>
    <text x="828" y="958" fill="#D97706" font-family="Inter, Arial, sans-serif" font-size="16" font-weight="900">Total Harga</text>
    <rect x="1010" y="936" width="72" height="28" rx="14" fill="#DCFCE7"/>
    <text x="1027" y="955" fill="#15803D" font-family="Inter, Arial, sans-serif" font-size="13" font-weight="900">paid</text>
    <text x="1192" y="958" fill="#2563EB" font-family="Inter, Arial, sans-serif" font-size="16" font-weight="900">Edit</text>
    <text x="1248" y="958" fill="#DC2626" font-family="Inter, Arial, sans-serif" font-size="16" font-weight="900">Hapus</text>
  </section>

  <section>
    <text x="80" y="1074" fill="#111827" font-family="Inter, Arial, sans-serif" font-size="28" font-weight="900">User Terdaftar</text>
    <rect x="80" y="1094" width="1280" height="82" rx="12" fill="#FFFFFF" stroke="#E5E7EB"/>
    <text x="112" y="1144" fill="#111827" font-family="Inter, Arial, sans-serif" font-size="16" font-weight="800">Risa Customer</text>
    <text x="456" y="1144" fill="#4B5563" font-family="Inter, Arial, sans-serif" font-size="16" font-weight="600">risa@email.com</text>
    <rect x="1010" y="1124" width="98" height="30" rx="15" fill="#DCFCE7"/>
    <text x="1030" y="1144" fill="#15803D" font-family="Inter, Arial, sans-serif" font-size="13" font-weight="900">customer</text>
  </section>
</svg>
